# xmcd
#
# Track frame offsets: 
#        150
#        13197
#        29961
#        38429
#        49012
#        62654
#        75341
#        98010
#        108582
#        122246
#        134431
#        149235
#        158473
#        171600
#        183221
#        198685
#
# Disc length: 2794 seconds
#
# Revision: 0
# Processed by: cddbd v1.5.2PL0 Copyright (c) Steve Scherf et al.
# Submitted via: ExactAudioCopyFreeDBPlugin 1.0
#
DISCID=e40ae810
DTITLE=Various Artist - Rebel Records Bluegrass Unlimited Sampler
DYEAR=2006
DGENRE=Bluegrass
TTITLE0=Mark Newton Band - Charlie Lawson's Still
TTITLE1=The Seldom Scene - Last Train from Poor Valley
TTITLE2=Ralph Stanley - Rocky Island
TTITLE3=The Country Gentlemen - Ages and Ages Ago
TTITLE4=Tony Rice - You Don't Know My Mind
TTITLE5=Lost and Found - Love of the Mountains
TTITLE6=Dave Evans - Pretty Green Hills
TTITLE7=Reno and Smiley - Shine, Hallelujah, Shine
TTITLE8=Steep Canyon Rangers - One Dime at a Time
TTITLE9=David Davis - Leavin' Tennessee
TTITLE10=Larry Sparks - Don't Neglect the Rose
TTITLE11=Keith Whitley and Ricky Skaggs - Those Two Blue Eyes
TTITLE12=Kenny and Amanda Smith - Going across the Sea
TTITLE13=Blue Highway - Good Time Blues
TTITLE14=The Boys from Indiana - Atlanta Is Burning
TTITLE15=Rhonda Vincent - Rise and Shine
EXTD=
EXTT0=
EXTT1=
EXTT2=
EXTT3=
EXTT4=
EXTT5=
EXTT6=
EXTT7=
EXTT8=
EXTT9=
EXTT10=
EXTT11=
EXTT12=
EXTT13=
EXTT14=
EXTT15=
PLAYORDER=
